<mxfile host="app.diagrams.net" modified="2024-06-28T06:38:21.854Z" agent="Mozilla/5.0 (Windows NT 10.0; Win64; x64) AppleWebKit/537.36 (KHTML, like Gecko) Chrome/126.0.0.0 Safari/537.36" version="24.0.5" etag="LLsJ7DoCAVMo8TDJ1rbc" type="github">
  <diagram name="Page-1" id="8-Un9mP4CI7cs1p9Rqkq">
    <mxGraphModel>
      <root>
        <mxCell id="0" />
        <mxCell id="1" parent="0" />
      </root>
    </mxGraphModel>
  </diagram>
</mxfile>
